<svg xmlns="http://www.w3.org/2000/svg" width="220" viewBox="0 0 386 386">
  <path fill="none" d="M0 0h386v386H0z"/>
  <g transform="matrix(.791 0 0 .791 -35 -43)">
    <path fill="#f28183" stroke="#414243" stroke-width="4" d="M188 387c-2 3-5 4-8 5 1-4 3-17-3-23-9-8-26-2-28 9-2 9 5 19 14 21-3 1-8 3-14 3s-8 6-2 7c7 1 14 1 21-3 9 3 20 1 27-7 2-1-6-13-7-12m-19 5-9-7c-2-2-2-7 0-9s7-3 10 0 2 12-1 16m-1-89-74-42c-6-3-15-1-10-9 14-24 51-33 84-7h240c31-21 61-23 85 7 4 7-7 7-10 9l-75 42z"/>
    <path fill="#f28183" d="M399 382c-2 14-7 28-14 40-1 27-4 76-16 87-8 2-15 2-22 0h-1c-7-6-10-27-13-48-9 3-18 5-28 5h-34c-10 0-19-2-28-5-2 21-6 41-13 48-8 2-15 2-23 0-11-11-15-60-15-87-8-12-13-26-14-40l-1-179c0-22 6-42 16-59a61 61 0 0 1-4-57c16 3 32 9 46 16 19-19 87-20 107 0 14-8 29-13 45-16a60 60 0 0 1-3 56c10 17 15 36 15 57z"/>
    <clipPath id="a">
      <path d="M399 382c-2 14-7 28-14 40-1 27-4 76-16 87-8 2-15 2-22 0h-1c-7-6-10-27-13-48-9 3-18 5-28 5h-34c-10 0-19-2-28-5-2 21-6 41-13 48-8 2-15 2-23 0-11-11-15-60-15-87-8-12-13-26-14-40l-1-179c0-22 6-42 16-59a61 61 0 0 1-4-57c16 3 32 9 46 16 19-19 87-20 107 0 14-8 29-13 45-16a60 60 0 0 1-3 56c10 17 15 36 15 57z"/>
    </clipPath>
    <g clip-path="url(#a)">
      <path fill="#414243" d="M328 173c0-6-5-10-11-10s-10 4-10 10l2 2c1 4 4 7 8 7 5 0 8-4 9-8 1 1 2 0 2-1m-69-10c-6 0-11 4-11 10l2 2c1 4 4 7 9 7 4 0 7-4 8-8 1 1 2 0 2-1 0-6-5-10-10-10"/>
    </g>
    <path fill="none" stroke="#414243" stroke-width="4" d="M399 382c-2 14-7 28-14 40-1 27-4 76-16 87-8 2-15 2-22 0h-1c-7-6-10-27-13-48-9 3-18 5-28 5h-34c-10 0-19-2-28-5-2 21-6 41-13 48-8 2-15 2-23 0-11-11-15-60-15-87-8-12-13-26-14-40l-1-179c0-22 6-42 16-59a61 61 0 0 1-4-57c16 3 32 9 46 16 19-19 87-20 107 0 14-8 29-13 45-16a60 60 0 0 1-3 56c10 17 15 36 15 57z"/>
  </g>
  <g transform="matrix(1.224 0 0 1.13 -575 -826)">
    <path fill="#feeee1" d="M705 852v130c0 7-5 13-11 13H561c-6 0-11-6-11-13V852c0-7 5-13 11-13h133c6 0 11 6 11 13"/>
    <clipPath id="b">
      <path d="M705 852v130c0 7-5 13-11 13H561c-6 0-11-6-11-13V852c0-7 5-13 11-13h133c6 0 11 6 11 13"/>
    </clipPath>
    <g clip-path="url(#b)">
      <path fill="#b3c0b6" d="M550 839h155v21H550z"/>
    </g>
    <path fill="none" stroke="#414243" stroke-width="4" d="M705 852v130c0 7-5 13-11 13H561c-6 0-11-6-11-13V852c0-7 5-13 11-13h133c6 0 11 6 11 13"/>
  </g>
  <path fill="#b3c0b6" d="M144 172v16a7 7 0 0 1-8 7h-15a7 7 0 0 1-7-7v-16a7 7 0 0 1 7-8h15a7 7 0 0 1 8 8m42 0v16a7 7 0 0 1-7 7h-15a7 7 0 0 1-7-7v-16a7 7 0 0 1 7-8h15a7 7 0 0 1 7 8m43 0v16a7 7 0 0 1-7 7h-15a7 7 0 0 1-7-7v-16a7 7 0 0 1 7-8h15a7 7 0 0 1 7 8m43 0v16a7 7 0 0 1-7 7h-15a7 7 0 0 1-8-7v-16a7 7 0 0 1 8-8h15a7 7 0 0 1 7 8m-128 44v17a7 7 0 0 1-8 7h-15a7 7 0 0 1-7-7v-17a7 7 0 0 1 7-7h15a7 7 0 0 1 8 7m42 0v17a7 7 0 0 1-7 7h-15a7 7 0 0 1-7-7v-17a7 7 0 0 1 7-7h15a7 7 0 0 1 7 7m43 0v17a7 7 0 0 1-7 7h-15a7 7 0 0 1-7-7v-17a7 7 0 0 1 7-7h15a7 7 0 0 1 7 7m43 0v17a7 7 0 0 1-7 7h-15a7 7 0 0 1-8-7v-17a7 7 0 0 1 8-7h15a7 7 0 0 1 7 7m-128 45v16a7 7 0 0 1-8 8h-15a7 7 0 0 1-7-8v-16a7 7 0 0 1 7-7h15a7 7 0 0 1 8 7m42 0v16a7 7 0 0 1-7 8h-15a7 7 0 0 1-7-8v-16a7 7 0 0 1 7-7h15a7 7 0 0 1 7 7m43 0v16a7 7 0 0 1-7 8h-15a7 7 0 0 1-7-8v-16a7 7 0 0 1 7-7h15a7 7 0 0 1 7 7m43 0v16a7 7 0 0 1-7 8h-15a7 7 0 0 1-8-8v-16a7 7 0 0 1 8-7h15a7 7 0 0 1 7 7"/>
  <path fill="#fcfbfb" d="M128 176h-1v-1l1-2h1q2 0 2 2v11a1 1 0 0 1-1 1h-1a1 1 0 0 1-1-2v-8a1 1 0 0 0 0-1m133 0h-2c-2-2 4-6 4-1l1 10a1 1 0 0 1-1 1h-1l-1-1zm-8 0h-1a1 1 0 0 1-1-1 3 3 0 0 1 0-1l1-1q3-1 3 2l1 10-2 2-1-2v-9m-80 53v-1c-8 1-9-8-2-10 3 0 5 3 5 6l1 1a1 1 0 0 1 0 1l-1 3v3a1 1 0 0 1-1 1h-1l-1-1zm0-4v-3a1 1 0 0 0-1-1h-1l-2 2v1l2 2h1a1 1 0 0 0 1-1m44-2v1c2 1 4 4 2 7q-1 2-3 2l-5-1q-3-2-1-7 3-5 7-7l2 1v2l-2 2m-2 4-2 2 3 1 1-2s-1-2-2-1m38 1 3-1v3q1 0 0 0l-7 1-1-1v-2l4-5-1-2-1 1-1-1v-1l2-2q2 0 3 2l1 2c0 2-2 4-3 5l1 1m9-7-2 1v-1l-1-1h1l3-2c1 0 2 1 2 3 1 2-1 4-2 6q-1 0 0 0h3l1 1v1l-1 1-6 1a1 2 0 0 1-2-2l1-1 3-6v-1m-134 3h4q2 2 1 5c0 3-5 4-8 3l-1-1v-2h4l2-1a1 1 0 0 0 0-1h-3l-2-1-1-2c1-4 6-5 9-5l1 1v1l-1 1h-4l-1 1v1m1 46h-2l-1-1v-1l3-1v-1l-1-1-2 1-1-1a1 1 0 0 1 0-2c3-1 6-1 7 2v5a2 2 0 0 1 0 3l-5 3h-1l-1-1a1 1 0 0 1 0-2 19 19 0 0 0 5-2 1 1 0 0 0-1-1zm40 2a1 1 0 0 0 0-1l-2-3c0-6 6-6 9-3 1 3 1 5-1 7l-6 3h-2l1-2zm4-6h-3v3h4l-1-3"/>
  <path fill="#414243" d="M265 124v22a5 5 0 0 1-5 5h-3a5 5 0 0 1-5-5v-22a5 5 0 0 1 5-6h3a5 5 0 0 1 5 6m-131 0v22a5 5 0 0 1-5 5h-3a5 5 0 0 1-5-5v-22a5 5 0 0 1 5-6h3a5 5 0 0 1 5 6"/>
  <g transform="matrix(.791 0 0 .791 -35 -43)">
    <path fill="#f28183" d="M299 221h-22a17 17 0 1 1 0-34h22a17 17 0 1 1 0 34"/>
    <clipPath id="c">
      <path d="M299 221h-22a17 17 0 1 1 0-34h22a17 17 0 1 1 0 34"/>
    </clipPath>
    <g clip-path="url(#c)">
      <path fill="#414243" d="M279 214c-2 0-4-2-4-4v-11a4 4 0 0 1 8 0v11c0 2-2 4-4 4m18 0c-2 0-4-2-4-4v-11a4 4 0 0 1 8 0v11c0 2-2 4-4 4"/>
    </g>
    <path fill="none" stroke="#414243" stroke-width="4" d="M299 221h-22a17 17 0 1 1 0-34h22a17 17 0 1 1 0 34"/>
  </g>
</svg>
