<svg xmlns="http://www.w3.org/2000/svg" width="320" viewBox="0 0 1230 320">
  <path fill="none" d="M0 0h1230v320H0z"/>
  <path fill="#535353" d="M1225 120v146c0 12-9 21-21 21H168c-12 0-21-9-21-21V120c0-12 9-21 21-21h1036c12 0 21 9 21 21"/>
  <path fill="#fbb3b4" stroke="#535353" d="M286 6v38c0 4-2 6-6 6H6c-4 0-6-2-6-6V6c0-4 2-6 6-6h274c4 0 6 2 6 6Z" transform="matrix(3.77 0 0 3.76 147 94)"/>
  <path fill="#fff" d="M525 212a21 21 0 0 1-8-8 25 25 0 0 1 0-23 21 21 0 0 1 8-8 23 23 0 0 1 23 0 21 21 0 0 1 8 8 25 25 0 0 1 0 23 21 21 0 0 1-8 9 23 23 0 0 1-23 0zm19-5a14 14 0 0 0 6-6 19 19 0 0 0 0-17 14 14 0 0 0-13-7 15 15 0 0 0-13 7 19 19 0 0 0 0 17 15 15 0 0 0 13 8 14 14 0 0 0 7-2zm22-36h7v7a14 14 0 0 1 6-6 16 16 0 0 1 8-2 15 15 0 0 1 12 4 18 18 0 0 1 4 13v27h-7v-26a11 11 0 0 0-3-9 11 11 0 0 0-8-3 10 10 0 0 0-6 2 13 13 0 0 0-4 5 15 15 0 0 0-2 7v24h-7zm79 40a31 31 0 0 1-16-27 31 31 0 0 1 5-16 31 31 0 0 1 27-15 33 33 0 0 1 12 2 25 25 0 0 1 10 7l-6 5a18 18 0 0 0-7-5 24 24 0 0 0-9-2 24 24 0 0 0-12 3 23 23 0 0 0-9 8 25 25 0 0 0-3 13 25 25 0 0 0 3 13 23 23 0 0 0 9 9 26 26 0 0 0 22 1 22 22 0 0 0 7-5 19 19 0 0 0 3-6 25 25 0 0 0 2-7h-22v-7h29v4a34 34 0 0 1-2 11 24 24 0 0 1-5 9 29 29 0 0 1-22 9 31 30 0 0 1-16-4m62 1a21 21 0 0 1-8-8 25 25 0 0 1 0-23 21 21 0 0 1 8-8 23 23 0 0 1 23 0 21 21 0 0 1 8 8 25 25 0 0 1 0 23 21 21 0 0 1-8 9 23 23 0 0 1-23 0zm19-5a14 14 0 0 0 5-6 19 19 0 0 0 0-17 14 14 0 0 0-12-7 15 15 0 0 0-13 7 19 19 0 0 0 0 17 15 15 0 0 0 13 8 14 14 0 0 0 7-2zm31 5a21 21 0 0 1-8-8 25 25 0 0 1 0-23 21 21 0 0 1 8-8 23 23 0 0 1 23 0 21 21 0 0 1 8 8 25 25 0 0 1 0 23 21 21 0 0 1-8 8 23 23 0 0 1-23 0zm19-5a14 14 0 0 0 5-6 19 19 0 0 0 0-17 14 14 0 0 0-13-7 15 15 0 0 0-12 7 19 19 0 0 0 0 17 15 15 0 0 0 12 8 14 14 0 0 0 8-2m29 23a17 17 0 0 1-7-9l7-2a13 13 0 0 0 5 6 13 13 0 0 0 8 2 14 14 0 0 0 10-4 14 14 0 0 0 4-10v-5h-1a16 16 0 0 1-6 5 18 18 0 0 1-8 2 19 19 0 0 1-10-3 20 20 0 0 1-8-8 27 27 0 0 1 0-23 20 20 0 0 1 8-8 19 19 0 0 1 10-3 18 18 0 0 1 8 2 15 15 0 0 1 6 5h1v-6h6v41a21 21 0 0 1-5 16 21 21 0 0 1-15 5 21 21 0 0 1-13-3m20-23a14 14 0 0 0 5-6 21 21 0 0 0 0-17 14 14 0 0 0-5-6 14 14 0 0 0-7-2 13 13 0 0 0-8 2 14 14 0 0 0-5 6 21 21 0 0 0 0 17 14 14 0 0 0 5 6 13 13 0 0 0 7 2 13 13 0 0 0 8-2m24-53h7v60h-7zm25 58a20 20 0 0 1-7-8 24 24 0 0 1-3-11 26 26 0 0 1 2-12 20 20 0 0 1 8-8 19 19 0 0 1 11-3 21 20 0 0 1 11 3 19 19 0 0 1 7 8 25 25 0 0 1 2 11v2h-34l2 8a14 14 0 0 0 6 5 14 14 0 0 0 6 2 14 14 0 0 0 13-8l6 3a22 22 0 0 1-8 9 23 23 0 0 1-22 0zm24-24a14 14 0 0 0-2-5 11 11 0 0 0-4-5 13 13 0 0 0-7-2 12 12 0 0 0-9 4 15 15 0 0 0-5 8zm47 23a30 30 0 0 1-11-11 33 33 0 0 1 0-32 30 29 0 0 1 11-11 31 31 0 0 1 16-4 28 28 0 0 1 22 9l-5 5a22 22 0 0 0-8-6 22 22 0 0 0-9-2 24 24 0 0 0-12 4 23 23 0 0 0-9 8 25 25 0 0 0-3 13 25 25 0 0 0 3 13 23 23 0 0 0 9 8 24 24 0 0 0 12 4 24 23 0 0 0 18-10l6 5a30 30 0 0 1-11 8 33 33 0 0 1-29-1zm48-57h7v60h-7zm25 58a21 21 0 0 1-8-8 25 25 0 0 1 0-23 21 21 0 0 1 8-8 23 23 0 0 1 23 0 21 21 0 0 1 8 8 25 25 0 0 1 0 23 21 21 0 0 1-8 9 23 23 0 0 1-23 0zm19-5a15 15 0 0 0 6-6 19 19 0 0 0 0-17 15 15 0 0 0-6-6 14 14 0 0 0-7-2 15 15 0 0 0-13 8 19 19 0 0 0 0 17 15 15 0 0 0 13 8 14 14 0 0 0 7-2zm26 4a18 18 0 0 1-4-13v-27h7v26a13 13 0 0 0 3 9 10 10 0 0 0 8 3 11 11 0 0 0 6-2 13 13 0 0 0 4-5 14 14 0 0 0 2-7v-24h7v43h-7v-6a14 14 0 0 1-6 5 16 16 0 0 1-8 2 15 15 0 0 1-12-4m51 1a21 21 0 0 1-8-8 27 27 0 0 1 0-23 21 21 0 0 1 8-8 19 19 0 0 1 10-3 17 17 0 0 1 9 2 16 16 0 0 1 6 6v-24h7v60h-7v-6a16 16 0 0 1-6 5 18 18 0 0 1-9 2 19 19 0 0 1-10-3m18-5a15 15 0 0 0 5-6 19 19 0 0 0 0-17 15 15 0 0 0-5-5 13 13 0 0 0-14 0 15 14 0 0 0-5 5 18 18 0 0 0-2 9 18 18 0 0 0 2 8 15 15 0 0 0 5 6 13 13 0 0 0 14 0m-776-53h21a20 20 0 0 1 9 2 18 18 0 0 1 7 7 17 17 0 0 1 2 9 17 17 0 0 1-2 8 17 17 0 0 1-5 6 18 18 0 0 1-7 3l17 25h-9l-16-24h-10v24h-7zm20 29a12 12 0 0 0 6-1 11 11 0 0 0 4-4 11 11 0 0 0 1-11 12 12 0 0 0-4-5 11 11 0 0 0-6-1h-14v22zm31 28a18 18 0 0 1-4-13v-27h7v26a13 13 0 0 0 3 9 10 10 0 0 0 7 3 11 11 0 0 0 7-2 13 13 0 0 0 4-5 15 15 0 0 0 2-7v-24h7v43h-7v-6a14 14 0 0 1-6 5 16 16 0 0 1-8 2 15 15 0 0 1-12-4m43-40h7v7a14 14 0 0 1 6-6 16 16 0 0 1 8-2 15 15 0 0 1 12 4 18 18 0 0 1 4 13v27h-7v-26a11 11 0 0 0-3-9 11 11 0 0 0-8-3 11 11 0 0 0-6 2 13 13 0 0 0-4 5 15 15 0 0 0-2 7v24h-7zm-182 17-17-52 69 52-69 52zm-34 0-13-52 17 9 13 43-13 43-17 9z"/>
  <path fill="#535353" stroke="#535353" stroke-width="4" d="M162 395c-3-1-6-3-5-6v-10a2 2 0 0 0-2-2l-8-3a2 2 0 0 0-1-1 2 2 0 0 0-2 3v11c0 4-3 6-6 6s-6-2-6-5v-18a10 10 0 0 1 2-5c2-4 7-5 11-4l16 6a10 10 0 0 1 7 9v13c0 3-3 6-6 6z" transform="matrix(.673 0 0 .671 -63 -38)"/>
  <g transform="matrix(.673 0 0 .671 -63 -38)">
    <path fill="#4285f4" d="M181 482h-20l-50-4a12 12 0 0 1-10-9 10 10 0 0 1 0-2v-77c0-5 4-9 9-9h38l39 17a9 9 0 0 1 3 6v69c0 5-4 9-9 9"/>
    <clipPath id="a">
      <path d="M181 482h-20l-50-4a12 12 0 0 1-10-9 10 10 0 0 1 0-2v-77c0-5 4-9 9-9h38l39 17a9 9 0 0 1 3 6v69c0 5-4 9-9 9"/>
    </clipPath>
    <g stroke="#535353" stroke-width="4" clip-path="url(#a)">
      <path fill="#89bdf2" d="M110 478c-5 0-9-4-9-9v-79c0-5 4-9 9-9h16v97zm33 0h-17v-97h17c5 0 9 4 8 9v79c1 5-3 9-8 9Z"/>
      <ellipse cx="164.9" cy="411" fill="#fbbc04" rx="6.4" ry="11.4"/>
      <path fill="#4285f4" d="m186 458-6-3-1 1-1 3a2 2 0 0 0 1 3l6 3 1-1 1-4a2 2 0 0 0-1-2Z"/>
      <path fill="#ea4335" d="m166 436-6 2c-1 0-2 2-1 5l1 8 3 4 6-2c2 0 2-2 2-5l-2-8c0-2-1-4-3-4Z"/>
      <ellipse cx="181.8" cy="426.7" fill="#34a853" rx="3.5" ry="5.6"/>
      <path fill="none" d="m160 474 11 1"/>
    </g>
    <path fill="none" stroke="#535353" stroke-width="4" d="M181 482h-20l-50-4a12 12 0 0 1-10-9 10 10 0 0 1 0-2v-77c0-5 4-9 9-9h38l39 17a9 9 0 0 1 3 6v69c0 5-4 9-9 9Z"/>
  </g>
  <path fill="#f28183" stroke="#535353" stroke-width="4" d="m188 269-20 2a43 43 0 0 0-9 1l-4 1c-14 6-24 20-26 35a44 44 0 0 0 0 9v1l-1 6 1 8v1l2 21a21 21 0 0 0 12 17l13 6c4 2 9 1 11-3a42 42 0 0 0 6-21v-2a2 2 0 0 0 0-1v-4l-2-16a9 9 0 0 1 1-5l1-1a9 9 0 0 1 1-1 8 8 0 0 1 2-2 9 9 0 0 1 2-1h2l14-1z" transform="matrix(.673 0 0 .671 -63 -38)"/>
  <path fill="#f28183" stroke="#535353" stroke-width="4" d="M393 282h11c5 0 10-4 10-9l2-14c2-24 23-42 47-41a3 3 0 0 1 3 3v2l-1 1a20 20 0 0 0-1 6l-7 54c-1 24-21 43-45 43h-3l-21-1c-21-2-33-9-33-17" transform="matrix(.673 0 0 .671 -63 -45)"/>
  <g transform="matrix(.876 0 0 .874 -154 -97)">
    <path fill="#fff" d="m462 255-28-4a4 4 0 0 1-3-4v-1l14-41a5 5 0 0 1 5-4l29 5a4 4 0 0 1 3 3v2l-14 41a5 5 0 0 1-6 3"/>
    <clipPath id="b">
      <path d="m462 255-28-4a4 4 0 0 1-3-4v-1l14-41a5 5 0 0 1 5-4l29 5a4 4 0 0 1 3 3v2l-14 41a5 5 0 0 1-6 3"/>
    </clipPath>
    <g stroke="#535353" stroke-width="2" clip-path="url(#b)">
      <path fill="#ea4335" d="m451 221 1-1-3-4h-1l-7 8c-2 6 1 12 7 15a2 2 0 0 1 0-1l1-6v-1c-3-3-1-8 2-10z"/>
      <path fill="#4285f4" d="m456 213-8 3 3 5c2-2 5-2 7-2h1c1-2 3-3 5-3s4 3 3 5l-2 7v1l5 1 1-1 3-7c1-5-2-11-8-12-3 0-7 1-10 3"/>
      <path fill="#34a853" d="m468 237 3-8-6-1-3 8-1 1v1l2 4h1c2-1 4-3 4-5"/>
      <path fill="#fbbc05" d="M448 233c-2 5 1 11 7 12 3 0 7-1 9-3l-3-5-4 2c-2-1-4-3-3-5l4-3-4-5c-3 2-5 4-6 7"/>
    </g>
    <path fill="#535353" d="M460 257h1l-29-5c-2-2-3-4-3-7l15-41c1-3 4-5 7-4l28 4c3 1 5 4 4 7l-14 41c0 2-1 3-3 4l-6 1m2-4c1 1 3 1 4-2l14-41c1-1 0-3-1-3l-29-5c-2 0-4 2-4 3a4788 4788 0 0 0-12 44l28 4z"/>
  </g>
  <path fill="#f28183" stroke="#535353" stroke-width="4" d="m436 253 7-6a9 9 0 0 1 13 1c3 4 2 10-2 13l-7 5" transform="matrix(.673 0 0 .671 -63 -45)"/>
  <path fill="#f28183" stroke="#535353" stroke-width="4" d="M396 386a92 92 0 0 1-14 39c-1 26-4 74-15 85a63 63 0 0 1-22 0c-7-6-11-26-13-47a93 93 0 0 1-28 5h-33a93 93 0 0 1-28-5c-2 21-6 41-12 47a4 4 0 0 0-1 0 63 63 0 0 1-21 0 4 4 0 0 0-1 0c-11-11-14-59-15-85a92 92 0 0 1-13-39l-1-175a113 113 0 0 1 16-58 59 59 0 0 1-4-56 183 183 0 0 1 45 16 105 105 0 0 1 48-14 109 109 0 0 1 56 14 183 183 0 0 1 44-16 59 59 0 0 1-3 55 108 108 0 0 1 15 56v178Z" transform="matrix(.673 0 0 .671 -63 -27)"/>
  <g transform="matrix(.679 0 0 .677 -65 -30)">
    <path fill="#414243" d="M311 164c9-2 19-2 28-2l20-1v11a15 15 0 0 0-7 13c0 15-12 27-27 27-12 0-23-8-26-20l-1-4v-1c0-6-5-10-10-10s-10 4-10 10v1l-1 4a27 27 0 0 1-53-7 15 15 0 0 0-7-13v-11l20 1 24 1c13 2 26 5 50 1"/>
    <clipPath id="c">
      <path d="M311 164c9-2 19-2 28-2l20-1v11a15 15 0 0 0-7 13c0 15-12 27-27 27-12 0-23-8-26-20l-1-4v-1c0-6-5-10-10-10s-10 4-10 10v1l-1 4a27 27 0 0 1-53-7 15 15 0 0 0-7-13v-11l20 1 24 1c13 2 26 5 50 1"/>
    </clipPath>
    <g clip-path="url(#c)">
      <g transform="rotate(180 251 186)">
        <path fill="#fbbc04" d="M269 186c0 9-7 16-15 16h-7a15 15 0 0 1 0-31h7c8 0 15 7 15 15"/>
        <clipPath id="d">
          <path d="M269 186c0 9-7 16-15 16h-7a15 15 0 0 1 0-31h7c8 0 15 7 15 15"/>
        </clipPath>
        <g clip-path="url(#d)">
          <path fill="#f3e9d4" d="m245 196 18-11a10 10 0 0 0-5-8l-20 12a10 10 0 0 0 7 7"/>
        </g>
        <path fill="none" stroke="#535353" stroke-width="4" d="M269 186c0 9-7 16-15 16h-7a15 15 0 0 1 0-31h7c8 0 15 7 15 15Z"/>
      </g>
      <path fill="#fbbc04" d="M343 186c0 9-6 16-15 16h-6a15 15 0 0 1 0-31h6c9 0 15 7 15 15"/>
      <clipPath id="e">
        <path d="M343 186c0 9-6 16-15 16h-6a15 15 0 0 1 0-31h6c9 0 15 7 15 15"/>
      </clipPath>
      <g clip-path="url(#e)">
        <path fill="#f3e9d4" d="m331 177-18 11a10 10 0 0 0 5 8l19-12a10 10 0 0 0-6-7"/>
      </g>
      <path fill="none" stroke="#535353" stroke-width="4" d="M343 186c0 9-6 16-15 16h-6a15 15 0 0 1 0-31h6c9 0 15 7 15 15Z"/>
      <ellipse cx="368" cy="68.1" fill="#dedede" rx="4.3" ry="1.5" transform="translate(-17 98)"/>
      <ellipse cx="368" cy="68.1" fill="#dedede" rx="4.3" ry="1.5" transform="translate(-143 98)"/>
    </g>
    <path fill="none" stroke="#535353" stroke-width="4" d="M311 164c9-2 19-2 28-2l20-1v11a15 15 0 0 0-7 13c0 15-12 27-27 27-12 0-23-8-26-20l-1-4v-1c0-6-5-10-10-10s-10 4-10 10v1l-1 4a27 27 0 0 1-53-7 15 15 0 0 0-7-13v-11l20 1 24 1c13 2 26 5 50 1Z"/>
  </g>
  <g transform="matrix(.673 0 0 .671 -63 -28)">
    <path fill="#f28183" d="M318 220c0 10-8 18-18 18h-23a19 19 0 0 1 0-37h23c10 0 18 8 18 19"/>
    <clipPath id="f">
      <path d="M318 220c0 10-8 18-18 18h-23a19 19 0 0 1 0-37h23c10 0 18 8 18 19"/>
    </clipPath>
    <g clip-path="url(#f)">
      <path fill="#535353" d="M282 214v12a4 4 0 0 1-4 4 4 4 0 0 1-4-4v-12a4 4 0 0 1 4-4c3 0 4 2 4 4m20 0v12a4 4 0 0 1-4 4 4 4 0 0 1-4-4v-12a4 4 0 0 1 4-4c2 0 4 2 4 4"/>
    </g>
    <path fill="none" stroke="#535353" stroke-width="4" d="M318 220c0 10-8 18-18 18h-23a19 19 0 0 1 0-37h23c10 0 18 8 18 19Z"/>
  </g>
  <path fill="#fbbf11" stroke="#535353" stroke-width="4" d="M305 97a308 308 0 0 0-80 8c-20 5-38 12-53 20a5 5 0 0 0-3 4l2 5c21 14 52 22 86 21l13-1 13-2c35-5 63-19 81-37a5 5 0 0 0 1-4 5 5 0 0 0-4-5c-16-5-35-8-56-9Z" transform="matrix(.686 0 0 .685 -63 -33)"/>
  <path fill="#4285f4" stroke="#535353" stroke-width="4" d="M360 105h-1a1 1 0 0 0-1 1 5 5 0 0 1-1 2c-16 18-43 32-75 37l-12 2-13 1c-32 1-61-8-81-22a6 6 0 0 1-1-2 1 1 0 0 0-2 0 6 6 0 0 0-3 6 6 6 0 0 0 3 5c20 13 50 21 84 20l13-1 13-1c34-6 62-19 79-37a6 6 0 0 0 2-4 6 6 0 0 0-4-7Z" transform="matrix(.686 0 0 .685 -63 -33)"/>
  <path fill="#fbbf11" stroke="#535353" stroke-width="4" d="M294 73a85 85 0 0 0-5-14 9 9 0 0 0-9-5 9 9 0 0 0-6 2l-1 1a31 31 0 0 1-25 3 17 17 0 0 1-2-1 9 9 0 0 0-4-1 9 9 0 0 0-9 7 84 84 0 0 0-3 14 100 100 0 0 0 1 18l2 12 1 1c8 4 20 6 32 4a75 75 0 0 0 32-11l-1-12a101 101 0 0 0-3-18Z" transform="matrix(.686 0 0 .685 -63 -33)"/>
  <path fill="#34a853" stroke="#535353" stroke-width="4" d="M266 103c-13 1-26-1-35-5a104 104 0 0 0 2 11l1 1c8 4 20 6 32 4a75 75 0 0 0 32-11l-1-10c-8 5-19 8-31 10Z" transform="matrix(.686 0 0 .685 -63 -33)"/>
  <path fill="none" stroke="#535353" stroke-width="2" d="M88 80 76 91m8-7h6m-6 5 10 1m1-6-2 11m9 1-15-1m15-7v8" transform="matrix(.686 0 0 .685 35 -7)"/>
  <path fill="none" stroke="#535353" stroke-width="2" d="m235 139 10 1" transform="matrix(.686 0 0 .685 -63 -33)"/>
  <path fill="none" stroke="#535353" stroke-width="2" d="M84 76 66 89m14-15 6 2m-10 5-5-5m35 13h8m0-5 1 10m17-63 3 12m0 0-6 1m12 0c0-6-3-13-3-13l-3 1m9 2-4 1m7 6-6 3" transform="matrix(.686 0 0 .685 35 -7)"/>
  <path fill="none" stroke="#535353" stroke-width="2" d="m272 75-3 1-1-5m11 17 4-1a5 5 0 0 1 1 3m-41 4a31 31 0 0 0 7 0v4" transform="matrix(.686 0 0 .685 -63 -33)"/>
  <path fill="none" stroke="#535353" stroke-width="2" d="m96 48 11 1m-7-6-1 5" transform="matrix(.686 0 0 .685 35 -7)"/>
  <path fill="none" stroke="#535353" stroke-width="2" d="m263 122 2 9" transform="matrix(.686 0 0 .685 -63 -33)"/>
</svg>
